<?xml version="1.0" encoding="UTF-8"?>
<svg xmlns="http://www.w3.org/2000/svg" xmlns:xlink="http://www.w3.org/1999/xlink" width="10607px" height="2367px" viewBox="0 0 10605 2367" version="1.1">
<defs>
<clipPath id="clip1">
  <path d="M 5358.347656 1.234375 L 5695 1.234375 L 5695 328 L 5358.347656 328 Z M 5358.347656 1.234375 "/>
</clipPath>
<clipPath id="clip2">
  <path d="M 6197 1909 L 6557 1909 L 6557 2365.890625 L 6197 2365.890625 Z M 6197 1909 "/>
</clipPath>
<clipPath id="clip3">
  <path d="M 6639.882812 1909 L 7026 1909 L 7026 2365.890625 L 6639.882812 2365.890625 Z M 6639.882812 1909 "/>
</clipPath>
<clipPath id="clip4">
  <path d="M 7331 1736 L 7783 1736 L 7783 2365.890625 L 7331 2365.890625 Z M 7331 1736 "/>
</clipPath>
<clipPath id="clip5">
  <path d="M 7859 1909 L 8305 1909 L 8305 2365.890625 L 7859 2365.890625 Z M 7859 1909 "/>
</clipPath>
<clipPath id="clip6">
  <path d="M 8589 1918 L 8955 1918 L 8955 2365.890625 L 8589 2365.890625 Z M 8589 1918 "/>
</clipPath>
<clipPath id="clip7">
  <path d="M 9052 1783 L 9371 1783 L 9371 2365.890625 L 9052 2365.890625 Z M 9052 1783 "/>
</clipPath>
<clipPath id="clip8">
  <path d="M 9634 1909 L 10080 1909 L 10080 2365.890625 L 9634 2365.890625 Z M 9634 1909 "/>
</clipPath>
</defs>
<g id="surface1">
<path style=" stroke:none;fill-rule:nonzero;fill:rgb(9.803922%,18.82353%,24.705882%);fill-opacity:1;" d="M 300.371094 819.410156 C 300.371094 868.496094 317.078125 909.925781 350.488281 944.398438 C 384.246094 978.867188 425.316406 995.917969 473.34375 995.917969 C 521.714844 995.917969 562.785156 978.867188 596.550781 944.398438 C 629.953125 909.925781 646.65625 868.496094 646.65625 819.410156 C 646.65625 770.664062 629.953125 728.890625 596.550781 694.429688 C 562.785156 659.960938 521.714844 642.898438 473.34375 642.898438 C 425.316406 642.898438 384.246094 659.960938 350.488281 694.429688 C 317.078125 728.890625 300.371094 770.675781 300.371094 819.410156 M 642.847656 1207.246094 L 642.847656 1192.628906 C 614.648438 1219.429688 583.324219 1239.628906 548.179688 1253.199219 C 513.023438 1266.425781 474.398438 1273.398438 433.316406 1273.398438 C 310.808594 1273.398438 207.792969 1229.523438 124.265625 1141.796875 C 40.738281 1054.402344 -1.023438 946.832031 -1.023438 819.410156 C -1.023438 691.984375 40.738281 584.761719 124.265625 497.019531 C 207.792969 409.28125 310.808594 365.773438 433.316406 365.773438 C 474.386719 365.773438 513.023438 372.390625 548.179688 385.617188 C 583.324219 399.199219 614.648438 419.042969 642.847656 445.5 L 642.847656 430.179688 C 642.847656 418.34375 646.667969 408.59375 653.984375 400.933594 C 661.628906 393.632812 671.378906 389.796875 682.859375 389.796875 L 902.125 389.796875 C 913.949219 389.796875 923.699219 393.632812 931.355469 400.933594 C 938.660156 408.59375 942.492188 418.34375 942.492188 430.179688 L 942.492188 1207.246094 C 942.492188 1218.382812 938.660156 1228.132812 930.65625 1236.148438 C 923.007812 1244.164062 913.949219 1248.332031 903.167969 1248.332031 L 684.605469 1248.332031 C 673.46875 1248.332031 663.71875 1244.152344 655.371094 1236.148438 C 647.023438 1228.144531 642.835938 1218.382812 642.835938 1207.246094 "/>
<path style=" stroke:none;fill-rule:nonzero;fill:rgb(9.803922%,18.82353%,24.705882%);fill-opacity:1;" d="M 1470.464844 1005.425781 C 1509.789062 1005.425781 1539.378906 994.277344 1559.5625 971.65625 C 1579.75 949.011719 1589.839844 915.941406 1589.839844 872.421875 L 1589.839844 425.046875 C 1589.839844 415.300781 1594.019531 406.941406 1602.722656 399.636719 C 1611.425781 392.324219 1621.164062 388.832031 1631.957031 388.832031 L 1848.441406 388.832031 C 1859.234375 388.832031 1868.972656 392.3125 1877.675781 399.636719 C 1886.019531 406.941406 1890.554688 415.300781 1890.554688 425.046875 L 1890.554688 912.820312 C 1890.554688 1017.609375 1852.621094 1103.949219 1776.75 1171.488281 C 1701.222656 1239.386719 1599.589844 1273.15625 1472.210938 1273.15625 C 1343.777344 1273.15625 1240.765625 1239.03125 1162.792969 1170.789062 C 1084.832031 1102.558594 1045.851562 1016.554688 1045.851562 912.820312 L 1045.851562 425.046875 C 1045.851562 415.300781 1050.03125 406.941406 1058.390625 399.636719 C 1066.738281 392.324219 1076.140625 388.832031 1086.921875 388.832031 L 1303.753906 388.832031 C 1314.546875 388.832031 1324.292969 392.3125 1333.339844 399.636719 C 1342.042969 406.941406 1346.566406 415.300781 1346.566406 425.046875 L 1346.566406 872.421875 C 1346.566406 914.898438 1357.347656 947.625 1378.589844 970.945312 C 1400.164062 993.933594 1430.796875 1005.425781 1470.464844 1005.425781 "/>
<path style=" stroke:none;fill-rule:nonzero;fill:rgb(9.803922%,18.82353%,24.705882%);fill-opacity:1;" d="M 2382.683594 1264.453125 C 2288.71875 1264.453125 2213.890625 1239.730469 2157.503906 1190.640625 C 2101.460938 1141.199219 2073.273438 1073.3125 2073.273438 986.273438 L 2073.273438 637.074219 L 1984.867188 637.074219 C 1974.085938 637.074219 1964.683594 633.261719 1957.023438 624.890625 C 1949.375 616.878906 1945.199219 607.128906 1945.199219 595.300781 L 1945.199219 533.316406 C 1945.199219 514.867188 1946.929688 500.246094 1950.410156 488.753906 C 1953.902344 477.617188 1960.503906 466.820312 1969.5625 456.371094 L 2182.902344 219.636719 C 2201.351562 199.792969 2216.3125 186.566406 2228.496094 180.984375 C 2240.679688 175.035156 2256.339844 171.9375 2275.488281 171.9375 L 2332.910156 171.9375 C 2344.046875 171.9375 2353.796875 175.75 2361.453125 183.773438 C 2369.457031 191.421875 2373.289062 200.828125 2373.289062 212.320312 L 2373.289062 388.832031 L 2561.921875 388.832031 C 2573.058594 388.832031 2582.808594 392.644531 2590.8125 400.671875 C 2598.824219 408.328125 2602.992188 417.734375 2602.992188 429.226562 L 2602.992188 595.300781 C 2602.992188 607.128906 2598.8125 616.878906 2590.8125 624.890625 C 2582.808594 633.238281 2573.058594 637.074219 2561.921875 637.074219 L 2373.289062 637.074219 L 2373.289062 923.257812 C 2373.289062 944.144531 2378.847656 960.851562 2389.996094 972.691406 C 2401.476562 984.882812 2416.792969 991.144531 2435.933594 991.144531 C 2447.417969 991.144531 2459.253906 988.742188 2472.125 984.183594 C 2485.351562 979.636719 2499.96875 972.34375 2516.671875 962.597656 C 2533.390625 953.191406 2547.308594 949.726562 2558.789062 952.503906 C 2570.625 954.902344 2581.417969 963.640625 2591.511719 978.257812 L 2667.382812 1091.765625 C 2675.730469 1104.648438 2679.90625 1117.53125 2679.21875 1130.414062 C 2678.875 1143.289062 2673.652344 1154.78125 2664.246094 1164.1875 C 2633.625 1195.511719 2592.898438 1219.886719 2542.78125 1237.640625 C 2492.664062 1255.40625 2439.414062 1264.453125 2382.683594 1264.453125 "/>
<path style=" stroke:none;fill-rule:nonzero;fill:rgb(9.803922%,18.82353%,24.705882%);fill-opacity:1;" d="M 3177.292969 624.925781 C 3136.566406 624.925781 3103.15625 637.796875 3076.703125 663.222656 C 3050.261719 688.976562 3037.378906 723.101562 3037.378906 766.265625 L 3037.378906 1207.039062 C 3037.378906 1218.878906 3033.542969 1228.617188 3025.894531 1236.285156 C 3018.582031 1243.589844 3008.835938 1247.425781 2997.007812 1247.425781 L 2777.742188 1247.425781 C 2765.90625 1247.425781 2756.15625 1243.613281 2748.855469 1236.285156 C 2741.195312 1228.625 2737.375 1218.878906 2737.375 1207.039062 L 2737.375 73.792969 C 2737.375 61.957031 2741.195312 52.21875 2748.855469 44.546875 C 2756.15625 37.246094 2765.90625 33.410156 2777.742188 33.410156 L 2997.007812 33.410156 C 3008.835938 33.410156 3018.582031 37.222656 3025.894531 44.546875 C 3033.542969 52.207031 3037.378906 61.957031 3037.378906 73.792969 L 3037.378906 491.234375 C 3064.519531 449.804688 3099.332031 418.46875 3141.792969 396.882812 C 3183.90625 375.304688 3232.277344 364.5 3286.917969 364.5 C 3395.167969 364.5 3476.964844 396.882812 3532.292969 460.941406 C 3587.980469 525.359375 3615.824219 618.65625 3615.824219 741.210938 L 3615.824219 1207.039062 C 3615.824219 1218.878906 3612 1228.625 3604.6875 1236.285156 C 3597.039062 1243.601562 3587.292969 1247.433594 3575.453125 1247.433594 L 3356.53125 1247.433594 C 3344.363281 1247.433594 3334.960938 1243.625 3327.300781 1236.285156 C 3320 1228.636719 3316.164062 1218.878906 3316.164062 1207.039062 L 3316.164062 766.277344 C 3316.164062 723.101562 3303.292969 688.988281 3277.527344 663.222656 C 3251.429688 637.808594 3218.363281 624.925781 3177.292969 624.925781 "/>
<path style=" stroke:none;fill-rule:nonzero;fill:rgb(9.803922%,18.82353%,24.705882%);fill-opacity:1;" d="M 3990.675781 818.523438 C 3990.675781 867.613281 4007.382812 909.042969 4040.792969 943.511719 C 4074.550781 977.972656 4115.621094 995.035156 4163.648438 995.035156 C 4212.03125 995.035156 4253.089844 977.972656 4286.855469 943.511719 C 4320.269531 909.042969 4336.972656 867.613281 4336.972656 818.523438 C 4336.972656 769.78125 4320.269531 727.996094 4286.855469 693.535156 C 4253.101562 659.066406 4212.03125 642.011719 4163.648438 642.011719 C 4115.621094 642.011719 4074.550781 659.066406 4040.792969 693.535156 C 4007.382812 727.996094 3990.675781 769.78125 3990.675781 818.523438 M 3689.269531 818.523438 C 3689.269531 692.835938 3735.566406 585.597656 3827.785156 497.171875 C 3920.375 409.085938 4032.089844 364.867188 4163.648438 364.867188 C 4295.558594 364.867188 4407.621094 409.085938 4499.851562 497.171875 C 4592.429688 585.597656 4638.378906 692.835938 4638.378906 818.523438 C 4638.378906 944.203125 4592.429688 1051.4375 4499.851562 1139.867188 C 4407.621094 1228.304688 4295.546875 1272.511719 4163.648438 1272.511719 C 4032.089844 1272.511719 3920.375 1228.304688 3827.785156 1139.867188 C 3735.554688 1051.4375 3689.269531 944.203125 3689.269531 818.523438 "/>
<path style=" stroke:none;fill-rule:nonzero;fill:rgb(9.803922%,18.82353%,24.705882%);fill-opacity:1;" d="M 4761.886719 388.867188 L 4918.164062 388.867188 C 4935.226562 388.867188 4949.839844 392.679688 4962.023438 401.0625 C 4974.207031 409.054688 4983.941406 421.246094 4991.601562 437.265625 L 5015.621094 491.234375 C 5047.285156 453.628906 5080.007812 424.738281 5113.421875 404.882812 C 5147.175781 385.042969 5179.886719 375.292969 5212.265625 375.292969 C 5247.066406 375.292969 5273.519531 382.953125 5291.617188 398.269531 C 5309.710938 413.589844 5316.679688 435.175781 5312.84375 463.722656 L 5288.835938 659.730469 C 5285.703125 682.363281 5278.386719 699.070312 5266.90625 710.5625 C 5255.769531 721.714844 5240.453125 727.628906 5220.96875 727.628906 C 5214.699219 727.628906 5207.742188 726.558594 5200.773438 725.550781 C 5193.816406 724.148438 5183.378906 721.402344 5169.449219 717.902344 C 5154.144531 713.023438 5142.308594 709.886719 5134.304688 708.496094 C 5126.648438 707.097656 5118.988281 706.429688 5111.675781 706.429688 C 5084.1875 706.429688 5061.914062 714.433594 5045.550781 730.796875 C 5028.847656 746.816406 5020.488281 768.746094 5020.488281 796.949219 L 5020.488281 1211.242188 C 5020.488281 1220.65625 5016.320312 1229.363281 5007.960938 1236.664062 C 4999.613281 1243.980469 4990.210938 1247.457031 4979.417969 1247.457031 L 4760.851562 1247.457031 C 4749.015625 1247.457031 4739.625 1243.644531 4731.964844 1235.964844 C 4724.308594 1228.660156 4720.828125 1219.257812 4720.828125 1207.773438 L 4720.828125 429.285156 C 4720.828125 417.792969 4724.664062 408.398438 4732.308594 400.382812 C 4739.96875 392.734375 4750.0625 388.902344 4761.898438 388.902344 "/>
<g clip-path="url(#clip1)" clip-rule="nonzero">
<path style=" stroke:none;fill-rule:nonzero;fill:rgb(0%,45.09804%,100%);fill-opacity:1;" d="M 5694.289062 165.230469 C 5694.289062 209.4375 5677.925781 247.386719 5644.859375 279.414062 C 5611.804688 311.4375 5572.46875 327.113281 5526.886719 327.113281 C 5480.949219 327.113281 5441.613281 311.4375 5408.199219 279.414062 C 5374.800781 247.386719 5358.4375 209.4375 5358.4375 165.230469 C 5358.4375 121.011719 5374.800781 82.714844 5408.199219 50.335938 C 5441.613281 17.953125 5480.949219 1.589844 5526.886719 1.589844 C 5572.480469 1.589844 5611.804688 17.953125 5644.859375 50.335938 C 5677.925781 82.714844 5694.289062 121.011719 5694.289062 165.230469 "/>
</g>
<path style=" stroke:none;fill-rule:nonzero;fill:rgb(9.803922%,18.82353%,24.705882%);fill-opacity:1;" d="M 6513.617188 623.527344 L 6173.578125 990.832031 L 6512.230469 990.832031 C 6523.367188 990.832031 6532.757812 995.046875 6540.417969 1002.316406 C 6547.71875 1009.972656 6551.554688 1019.378906 6551.554688 1030.527344 L 6551.554688 1207.726562 C 6551.554688 1219.222656 6547.71875 1228.617188 6540.417969 1235.929688 C 6532.757812 1243.589844 6523.367188 1247.425781 6512.230469 1247.425781 L 5808.496094 1247.425781 C 5797.359375 1247.425781 5787.609375 1243.210938 5779.265625 1235.242188 C 5770.917969 1227.226562 5766.738281 1217.476562 5766.738281 1206.339844 L 5766.738281 1060.464844 C 5766.738281 1050.015625 5768.125 1041.65625 5770.90625 1034.695312 C 5773.339844 1027.738281 5778.21875 1020.421875 5785.175781 1013.808594 L 6132.53125 645.113281 L 5821.722656 645.113281 C 5810.242188 645.113281 5800.492188 641.300781 5792.492188 633.273438 C 5784.488281 624.925781 5780.308594 615.167969 5780.308594 604.027344 L 5780.308594 430.652344 C 5780.308594 419.503906 5784.488281 409.753906 5792.835938 401.40625 C 5801.195312 393.058594 5810.941406 388.867188 5821.722656 388.867188 L 6491.367188 388.867188 C 6502.515625 388.867188 6512.253906 393.011719 6520.253906 401.40625 C 6528.257812 409.753906 6532.4375 419.503906 6532.4375 430.652344 L 6532.4375 575.828125 C 6532.4375 585.921875 6531.046875 594.625 6528.269531 601.59375 C 6525.492188 608.550781 6520.609375 615.867188 6513.652344 623.527344 "/>
<path style=" stroke:none;fill-rule:nonzero;fill:rgb(9.803922%,18.82353%,24.705882%);fill-opacity:1;" d="M 6899.597656 707.417969 L 7184.296875 707.417969 C 7178.382812 674.003906 7162.367188 646.847656 7136.269531 625.960938 C 7110.160156 604.71875 7079.882812 594.269531 7044.726562 594.269531 C 7010.269531 594.269531 6979.648438 604.71875 6952.503906 625.960938 C 6925.351562 646.847656 6907.957031 674.003906 6899.597656 707.417969 M 7439.0625 1107.105469 C 7404.605469 1157.238281 7353.085938 1197.277344 7284.875 1227.226562 C 7216.664062 1257.160156 7142.179688 1272.492188 7061.085938 1272.492188 C 6923.949219 1272.492188 6811.53125 1229.660156 6723.824219 1144.710938 C 6635.773438 1059.417969 6591.921875 952.183594 6591.921875 822.667969 C 6591.921875 688.277344 6633.335938 578.261719 6715.476562 492.957031 C 6797.960938 407.308594 6906.210938 364.488281 7039.855469 364.488281 C 7168.980469 364.488281 7273.738281 405.574219 7354.132812 487.742188 C 7434.882812 569.558594 7475.253906 670.167969 7475.253906 789.585938 L 7475.253906 838.6875 C 7475.253906 857.484375 7471.074219 872.457031 7463.070312 883.941406 C 7455.066406 895.078125 7443.585938 900.660156 7428.269531 900.660156 L 6893.328125 900.660156 C 6901.332031 940.34375 6920.828125 972.023438 6952.148438 995 C 6983.125 1017.976562 7021.050781 1029.816406 7064.910156 1029.816406 C 7094.496094 1029.816406 7121.640625 1024.269531 7146.703125 1013.453125 C 7171.769531 1002.660156 7195.777344 985.953125 7218.753906 962.621094 C 7229.1875 952.527344 7239.625 946.957031 7250.761719 945.914062 C 7261.902344 944.84375 7273.039062 947.980469 7284.875 955.660156 L 7430.015625 1050.703125 C 7440.105469 1057.316406 7446.019531 1065.675781 7447.410156 1076.46875 C 7448.796875 1087.265625 7445.675781 1097.355469 7439.0625 1107.105469 "/>
<path style=" stroke:none;fill-rule:nonzero;fill:rgb(100%,76.078433%,0%);fill-opacity:1;" d="M 7923.347656 1079.617188 C 7923.347656 1132.539062 7904.550781 1177.804688 7866.617188 1215.410156 C 7828.679688 1253.347656 7783.085938 1272.503906 7729.835938 1272.503906 C 7677.273438 1272.503906 7632.023438 1253.347656 7594.441406 1215.410156 C 7556.851562 1177.804688 7538.058594 1132.539062 7538.058594 1079.617188 C 7538.058594 1026.359375 7556.851562 981.09375 7594.441406 943.5 C 7632.023438 905.894531 7677.273438 887.085938 7729.835938 887.085938 C 7783.074219 887.085938 7828.679688 905.894531 7866.617188 943.5 C 7904.550781 981.09375 7923.347656 1026.359375 7923.347656 1079.617188 "/>
<path style=" stroke:none;fill-rule:nonzero;fill:rgb(9.803922%,18.82353%,24.705882%);fill-opacity:1;" d="M 8453.925781 624.925781 C 8412.855469 624.925781 8379.445312 637.796875 8353 663.222656 C 8326.890625 688.976562 8313.664062 723.101562 8313.664062 766.265625 L 8313.664062 1207.039062 C 8313.664062 1218.878906 8309.839844 1228.617188 8302.183594 1236.285156 C 8294.882812 1243.589844 8285.132812 1247.425781 8273.296875 1247.425781 L 8054.03125 1247.425781 C 8042.191406 1247.425781 8032.800781 1243.613281 8025.144531 1236.285156 C 8017.484375 1228.625 8013.648438 1218.878906 8013.648438 1207.039062 L 8013.648438 429.285156 C 8013.648438 417.445312 8017.484375 407.699219 8025.144531 400.039062 C 8032.789062 392.722656 8042.191406 388.902344 8054.03125 388.902344 L 8273.296875 388.902344 C 8285.132812 388.902344 8294.871094 392.703125 8302.183594 400.039062 C 8309.839844 407.699219 8313.664062 417.445312 8313.664062 429.285156 L 8313.664062 491.257812 C 8341.164062 449.828125 8375.621094 418.492188 8418.078125 396.902344 C 8460.195312 375.316406 8508.578125 364.523438 8563.21875 364.523438 C 8671.457031 364.523438 8753.25 396.902344 8808.9375 460.964844 C 8864.277344 525.371094 8892.121094 618.679688 8892.121094 741.222656 L 8892.121094 1207.0625 C 8892.121094 1218.902344 8888.289062 1228.648438 8880.984375 1236.308594 C 8873.328125 1243.613281 8863.578125 1247.445312 8851.753906 1247.445312 L 8632.832031 1247.445312 C 8620.996094 1247.445312 8611.257812 1243.644531 8603.601562 1236.308594 C 8596.285156 1228.648438 8592.460938 1218.902344 8592.460938 1207.0625 L 8592.460938 766.289062 C 8592.460938 723.125 8579.582031 689.011719 8553.828125 663.246094 C 8528.074219 637.832031 8494.660156 624.949219 8453.9375 624.949219 "/>
<path style=" stroke:none;fill-rule:nonzero;fill:rgb(9.803922%,18.82353%,24.705882%);fill-opacity:1;" d="M 9274.53125 707.417969 L 9558.882812 707.417969 C 9552.972656 674.003906 9536.953125 646.847656 9511.199219 625.960938 C 9485.089844 604.71875 9454.46875 594.269531 9419.65625 594.269531 C 9385.203125 594.269531 9354.578125 604.71875 9327.4375 625.960938 C 9300.28125 646.847656 9282.53125 674.003906 9274.53125 707.417969 M 9813.652344 1107.105469 C 9779.195312 1157.238281 9728.03125 1197.277344 9659.808594 1227.226562 C 9591.59375 1257.160156 9516.769531 1272.492188 9435.664062 1272.492188 C 9298.539062 1272.492188 9186.121094 1229.660156 9098.414062 1144.710938 C 9010.703125 1059.417969 8966.84375 952.183594 8966.84375 822.667969 C 8966.84375 688.277344 9007.914062 578.261719 9090.410156 492.957031 C 9172.894531 407.308594 9280.789062 364.488281 9414.789062 364.488281 C 9543.566406 364.488281 9648.328125 405.574219 9729.066406 487.742188 C 9809.460938 569.558594 9849.839844 670.167969 9849.839844 789.585938 L 9849.839844 838.6875 C 9849.839844 857.484375 9846.003906 872.457031 9837.660156 883.941406 C 9829.65625 895.078125 9818.164062 900.660156 9803.203125 900.660156 L 9268.261719 900.660156 C 9276.261719 940.34375 9295.757812 972.023438 9327.082031 995 C 9358.058594 1017.976562 9395.636719 1029.816406 9439.84375 1029.816406 C 9469.429688 1029.816406 9496.574219 1024.269531 9521.636719 1013.453125 C 9546.691406 1002.660156 9570.367188 985.953125 9593.683594 962.621094 C 9603.777344 952.527344 9614.558594 946.957031 9625.351562 945.914062 C 9636.488281 944.84375 9647.96875 947.980469 9659.808594 955.660156 L 9804.589844 1050.703125 C 9815.039062 1057.316406 9820.953125 1065.675781 9821.996094 1076.46875 C 9823.386719 1087.265625 9820.609375 1097.355469 9813.652344 1107.105469 "/>
<path style=" stroke:none;fill-rule:nonzero;fill:rgb(9.803922%,18.82353%,24.705882%);fill-opacity:1;" d="M 10309.496094 1265.921875 C 10215.519531 1265.921875 10140.347656 1241.210938 10084.320312 1192.125 C 10027.945312 1142.679688 10000.101562 1074.792969 10000.101562 987.753906 L 10000.101562 638.554688 L 9911.347656 638.554688 C 9900.554688 638.554688 9891.164062 634.722656 9883.503906 626.375 C 9875.847656 618.359375 9871.667969 608.621094 9871.667969 596.78125 L 9871.667969 534.8125 C 9871.667969 516.359375 9873.414062 501.742188 9877.234375 490.246094 C 9880.726562 479.109375 9886.984375 468.316406 9896.03125 457.867188 L 10109.371094 221.140625 C 10127.824219 201.285156 10142.785156 188.058594 10154.964844 182.488281 C 10167.148438 176.574219 10182.808594 173.441406 10202.304688 173.441406 L 10259.378906 173.441406 C 10270.859375 173.441406 10280.265625 177.277344 10287.921875 185.277344 C 10295.914062 192.925781 10299.75 202.332031 10299.75 213.824219 L 10299.75 390.335938 L 10488.382812 390.335938 C 10499.519531 390.335938 10509.265625 394.171875 10517.269531 402.175781 C 10525.28125 409.832031 10529.449219 419.238281 10529.449219 430.71875 L 10529.449219 596.792969 C 10529.449219 608.621094 10525.269531 618.371094 10517.269531 626.386719 C 10509.277344 634.734375 10499.519531 638.566406 10488.382812 638.566406 L 10299.75 638.566406 L 10299.75 924.738281 C 10299.75 945.625 10305.316406 962.34375 10316.453125 974.183594 C 10327.9375 986.367188 10343.253906 992.625 10362.75 992.625 C 10373.886719 992.625 10386.066406 990.199219 10398.9375 985.664062 C 10411.820312 981.140625 10426.4375 973.828125 10443.144531 964.078125 C 10459.847656 954.683594 10473.765625 951.207031 10485.601562 953.984375 C 10497.085938 956.417969 10507.875 965.121094 10517.96875 979.75 L 10593.839844 1093.246094 C 10602.542969 1106.117188 10606.367188 1119.003906 10606.023438 1131.886719 C 10605.308594 1144.769531 10600.453125 1156.25 10590.707031 1165.65625 C 10560.082031 1196.992188 10519.703125 1221.359375 10469.242188 1239.109375 C 10419.125 1256.875 10365.871094 1265.921875 10309.484375 1265.921875 "/>
<path style=" stroke:none;fill-rule:nonzero;fill:rgb(11.764706%,15.686275%,25.882354%);fill-opacity:1;" d="M 5739.722656 2348.804688 C 5737.988281 2354.71875 5736.242188 2357.496094 5729.984375 2357.496094 L 5649.933594 2357.496094 C 5643.664062 2357.496094 5641.921875 2354.71875 5640.1875 2348.804688 L 5427.191406 1754.507812 C 5425.457031 1748.59375 5427.902344 1745.804688 5434.148438 1745.804688 L 5502.015625 1745.804688 C 5508.285156 1745.804688 5511.0625 1748.585938 5512.808594 1754.507812 L 5689.960938 2270.125 L 5867.453125 1754.507812 C 5869.1875 1748.59375 5871.632812 1745.804688 5877.890625 1745.804688 L 5945.757812 1745.804688 C 5952.027344 1745.804688 5954.808594 1748.585938 5953.074219 1754.507812 Z M 5739.722656 2348.804688 "/>
<path style=" stroke:none;fill-rule:nonzero;fill:rgb(11.764706%,15.686275%,25.882354%);fill-opacity:1;" d="M 6027.507812 1754.335938 C 6027.507812 1748.410156 6030.289062 1745.621094 6036.210938 1745.621094 L 6111.382812 1745.621094 C 6117.304688 1745.621094 6120.097656 1748.410156 6120.097656 1754.335938 L 6120.097656 1829.535156 C 6120.097656 1835.792969 6117.304688 1838.230469 6111.382812 1838.230469 L 6036.210938 1838.230469 C 6030.296875 1838.230469 6027.507812 1835.792969 6027.507812 1829.535156 Z M 6039.691406 1927.355469 C 6039.691406 1921.097656 6042.46875 1918.664062 6048.394531 1918.664062 L 6099.210938 1918.664062 C 6105.125 1918.664062 6107.914062 1921.097656 6107.914062 1927.355469 L 6107.914062 2348.621094 C 6107.914062 2354.546875 6105.136719 2357.324219 6099.210938 2357.324219 L 6048.394531 2357.324219 C 6042.480469 2357.324219 6039.691406 2354.546875 6039.691406 2348.621094 Z M 6039.691406 1927.355469 "/>
<g clip-path="url(#clip2)" clip-rule="nonzero">
<path style=" stroke:none;fill-rule:nonzero;fill:rgb(11.764706%,15.686275%,25.882354%);fill-opacity:1;" d="M 6381.222656 2365.730469 C 6279.253906 2365.730469 6197.117188 2305.503906 6197.117188 2223.34375 C 6197.117188 2218.121094 6199.550781 2214.640625 6205.808594 2214.640625 L 6261.492188 2214.640625 C 6267.761719 2214.640625 6269.507812 2217.074219 6270.539062 2223.34375 C 6277.5 2274.167969 6318.566406 2300.980469 6384.003906 2300.980469 C 6442.464844 2300.980469 6485.269531 2282.871094 6485.269531 2237.261719 C 6485.269531 2192.007812 6446.644531 2175.992188 6357.546875 2162.0625 C 6252.789062 2145.699219 6208.242188 2111.585938 6208.242188 2034.640625 C 6208.242188 1954.226562 6281.667969 1909.664062 6374.253906 1909.664062 C 6472.042969 1909.664062 6532.253906 1959.453125 6543.046875 2035.351562 C 6543.046875 2040.566406 6540.265625 2044.042969 6534.34375 2044.042969 L 6485.269531 2044.042969 C 6479 2044.042969 6478.3125 2041.609375 6476.566406 2035.351562 C 6463.339844 1992.519531 6418.792969 1974.425781 6371.796875 1974.425781 C 6315.765625 1974.425781 6276.441406 1993.566406 6276.441406 2032.90625 C 6276.441406 2075.734375 6311.585938 2090.355469 6399.640625 2106.371094 C 6483.523438 2120.988281 6556.949219 2145.710938 6556.949219 2228.570312 C 6556.949219 2316.652344 6483.511719 2365.742188 6381.1875 2365.742188 "/>
</g>
<g clip-path="url(#clip3)" clip-rule="nonzero">
<path style=" stroke:none;fill-rule:nonzero;fill:rgb(11.764706%,15.686275%,25.882354%);fill-opacity:1;" d="M 6663.660156 2048.453125 C 6660.171875 2048.453125 6657.390625 2046.707031 6657.390625 2043.230469 C 6657.390625 2041.484375 6657.390625 2038.003906 6658.4375 2034.511719 C 6675.84375 1968.015625 6732.5625 1909.535156 6834.898438 1909.535156 C 6936.167969 1909.535156 7008.558594 1970.808594 7008.558594 2062.371094 L 7008.558594 2272.996094 C 7008.558594 2314.78125 7012.046875 2327.308594 7023.53125 2348.195312 C 7024.242188 2349.941406 7025.265625 2350.628906 7025.265625 2352.375 C 7025.265625 2355.867188 7022.484375 2356.910156 7018.304688 2356.910156 L 6949.394531 2356.910156 C 6943.136719 2356.910156 6940.703125 2354.132812 6940.703125 2348.207031 L 6940.703125 2302.597656 C 6912.503906 2341.25 6859.261719 2365.617188 6797.308594 2365.617188 C 6721.4375 2365.617188 6639.996094 2320.363281 6639.996094 2226.710938 C 6639.996094 2129.578125 6718.644531 2080.835938 6817.492188 2080.835938 C 6860.996094 2080.835938 6903.8125 2089.527344 6940.703125 2099.976562 L 6940.703125 2075.609375 C 6940.703125 2010.160156 6902.066406 1973.953125 6834.898438 1973.953125 C 6783.390625 1973.953125 6748.234375 1998.675781 6731.527344 2040.449219 C 6729.09375 2047.410156 6724.914062 2048.453125 6719.347656 2048.453125 Z M 6821.660156 2145.574219 C 6759.714844 2145.574219 6711.675781 2168.207031 6711.675781 2222.175781 C 6711.675781 2272.996094 6746.488281 2300.851562 6804.953125 2300.851562 C 6878.390625 2300.851562 6940.691406 2252.808594 6940.691406 2164.726562 C 6904.832031 2152.53125 6867.941406 2145.574219 6821.660156 2145.574219 "/>
</g>
<g clip-path="url(#clip4)" clip-rule="nonzero">
<path style=" stroke:none;fill-rule:nonzero;fill:rgb(11.764706%,15.686275%,25.882354%);fill-opacity:1;" d="M 7552.84375 1736.503906 C 7684.746094 1736.503906 7759.917969 1817.628906 7762.363281 1906.757812 C 7762.363281 1913.027344 7759.929688 1915.804688 7753.671875 1915.804688 L 7697.628906 1915.804688 C 7691.714844 1915.804688 7689.28125 1913.027344 7689.28125 1906.757812 C 7685.457031 1846.53125 7626.292969 1806.492188 7552.855469 1806.492188 C 7478.730469 1806.492188 7420.957031 1839.5625 7420.957031 1896.308594 C 7420.957031 1961.757812 7490.902344 1986.480469 7582.445312 2010.859375 C 7694.160156 2040.449219 7782.558594 2081.535156 7782.558594 2178.667969 C 7782.558594 2304.34375 7689.28125 2365.617188 7557.035156 2365.617188 C 7430.347656 2365.617188 7331.871094 2286.9375 7331.871094 2171.695312 C 7331.871094 2165.4375 7334.292969 2162.992188 7340.574219 2162.992188 L 7396.601562 2162.992188 C 7402.515625 2162.992188 7405.304688 2165.425781 7405.304688 2171.695312 C 7407.742188 2242.371094 7466.214844 2295.640625 7557.046875 2295.640625 C 7651.714844 2295.640625 7709.132812 2260.824219 7709.132812 2183.191406 C 7709.132812 2121.917969 7633.964844 2098.242188 7549.390625 2076.308594 C 7429.660156 2046.019531 7347.53125 2002.855469 7347.53125 1899.800781 C 7347.53125 1792.21875 7443.585938 1736.515625 7552.867188 1736.515625 "/>
</g>
<g clip-path="url(#clip5)" clip-rule="nonzero">
<path style=" stroke:none;fill-rule:nonzero;fill:rgb(11.764706%,15.686275%,25.882354%);fill-opacity:1;" d="M 8082.082031 1909.410156 C 8207.722656 1909.410156 8304.824219 1998.539062 8304.824219 2137.457031 C 8304.824219 2276.359375 8207.722656 2365.488281 8082.082031 2365.488281 C 7956.082031 2365.488281 7859.335938 2276.359375 7859.335938 2137.457031 C 7859.335938 1998.539062 7956.082031 1909.410156 8082.082031 1909.410156 M 8082.082031 2300.726562 C 8171.867188 2300.726562 8233.121094 2235.277344 8233.121094 2137.457031 C 8233.121094 2039.625 8171.867188 1974.171875 8082.082031 1974.171875 C 7991.9375 1974.171875 7931.027344 2039.625 7931.027344 2137.457031 C 7931.027344 2235.289062 7991.9375 2300.726562 8082.082031 2300.726562 "/>
</g>
<path style=" stroke:none;fill-rule:nonzero;fill:rgb(11.764706%,15.686275%,25.882354%);fill-opacity:1;" d="M 8404.609375 1754.335938 C 8404.609375 1748.410156 8407.390625 1745.621094 8413.3125 1745.621094 L 8464.121094 1745.621094 C 8470.046875 1745.621094 8472.824219 1748.410156 8472.824219 1754.335938 L 8472.824219 2348.621094 C 8472.824219 2354.546875 8470.046875 2357.324219 8464.121094 2357.324219 L 8413.3125 2357.324219 C 8407.402344 2357.324219 8404.609375 2354.546875 8404.609375 2348.621094 Z M 8404.609375 1754.335938 "/>
<g clip-path="url(#clip6)" clip-rule="nonzero">
<path style=" stroke:none;fill-rule:nonzero;fill:rgb(11.764706%,15.686275%,25.882354%);fill-opacity:1;" d="M 8954.328125 2348.804688 C 8954.328125 2354.71875 8951.90625 2357.496094 8945.625 2357.496094 L 8894.820312 2357.496094 C 8888.894531 2357.496094 8886.117188 2354.71875 8886.117188 2348.804688 L 8886.117188 2299.015625 C 8852.347656 2340.101562 8803.277344 2366.210938 8741.332031 2366.210938 C 8649.457031 2366.210938 8589.234375 2309.464844 8589.234375 2207.097656 L 8589.234375 1927.542969 C 8589.234375 1921.628906 8592.027344 1918.847656 8597.949219 1918.847656 L 8648.757812 1918.847656 C 8654.671875 1918.847656 8657.460938 1921.628906 8657.460938 1927.542969 L 8657.460938 2196.660156 C 8657.460938 2267.335938 8694.007812 2301.449219 8757.007812 2301.449219 C 8830.441406 2301.449219 8886.117188 2248.183594 8886.117188 2142.347656 L 8886.117188 1927.53125 C 8886.117188 1921.617188 8888.894531 1918.835938 8894.832031 1918.835938 L 8945.636719 1918.835938 C 8951.90625 1918.835938 8954.339844 1921.617188 8954.339844 1927.53125 Z M 8954.328125 2348.804688 "/>
</g>
<g clip-path="url(#clip7)" clip-rule="nonzero">
<path style=" stroke:none;fill-rule:nonzero;fill:rgb(11.764706%,15.686275%,25.882354%);fill-opacity:1;" d="M 9351.710938 1918.320312 C 9357.96875 1918.320312 9360.402344 1921.109375 9360.402344 1927.023438 L 9360.402344 1974.023438 C 9360.402344 1980.292969 9357.96875 1983.070312 9351.710938 1983.070312 L 9206.925781 1983.070312 L 9206.925781 2226.777344 C 9206.925781 2275.867188 9229.542969 2300.933594 9275.839844 2300.933594 C 9304.714844 2300.933594 9327.34375 2299.199219 9358.667969 2288.050781 C 9360.402344 2287.015625 9363.191406 2285.972656 9364.925781 2285.972656 C 9369.105469 2285.972656 9370.847656 2289.808594 9370.847656 2295.019531 L 9370.847656 2336.105469 C 9370.847656 2343.765625 9370.847656 2348.289062 9363.890625 2350.722656 C 9338.828125 2360.472656 9307.160156 2365.695312 9270.613281 2365.695312 C 9188.476562 2365.695312 9138.703125 2315.90625 9138.703125 2232.703125 L 9138.703125 1983.082031 L 9061.097656 1983.082031 C 9054.828125 1983.082031 9052.039062 1980.292969 9052.039062 1974.023438 L 9052.039062 1927.023438 C 9052.039062 1921.109375 9054.816406 1918.332031 9061.097656 1918.332031 L 9138.703125 1918.332031 L 9138.703125 1792.644531 C 9138.703125 1786.375 9141.136719 1783.9375 9147.40625 1783.9375 L 9198.222656 1783.9375 C 9204.136719 1783.9375 9206.925781 1786.375 9206.925781 1792.644531 L 9206.925781 1918.332031 Z M 9351.710938 1918.320312 "/>
</g>
<path style=" stroke:none;fill-rule:nonzero;fill:rgb(11.764706%,15.686275%,25.882354%);fill-opacity:1;" d="M 9458.625 1754.335938 C 9458.625 1748.410156 9461.050781 1745.621094 9467.316406 1745.621094 L 9542.488281 1745.621094 C 9548.414062 1745.621094 9551.191406 1748.410156 9551.191406 1754.335938 L 9551.191406 1829.535156 C 9551.191406 1835.792969 9548.414062 1838.230469 9542.488281 1838.230469 L 9467.316406 1838.230469 C 9461.050781 1838.230469 9458.625 1835.792969 9458.625 1829.535156 Z M 9470.796875 1927.355469 C 9470.796875 1921.097656 9473.230469 1918.664062 9479.5 1918.664062 L 9530.304688 1918.664062 C 9536.230469 1918.664062 9539.019531 1921.097656 9539.019531 1927.355469 L 9539.019531 2348.621094 C 9539.019531 2354.546875 9536.230469 2357.324219 9530.304688 2357.324219 L 9479.5 2357.324219 C 9473.230469 2357.324219 9470.796875 2354.546875 9470.796875 2348.621094 Z M 9470.796875 1927.355469 "/>
<g clip-path="url(#clip8)" clip-rule="nonzero">
<path style=" stroke:none;fill-rule:nonzero;fill:rgb(11.764706%,15.686275%,25.882354%);fill-opacity:1;" d="M 9856.878906 1909.410156 C 9982.878906 1909.410156 10079.621094 1998.539062 10079.621094 2137.457031 C 10079.621094 2276.359375 9982.878906 2365.488281 9856.878906 2365.488281 C 9731.234375 2365.488281 9634.144531 2276.359375 9634.144531 2137.457031 C 9634.144531 1998.539062 9731.234375 1909.410156 9856.878906 1909.410156 M 9856.878906 2300.726562 C 9947.019531 2300.726562 10007.929688 2235.277344 10007.929688 2137.457031 C 10007.929688 2039.625 9947.019531 1974.171875 9856.878906 1974.171875 C 9767.09375 1974.171875 9705.835938 2039.625 9705.835938 2137.457031 C 9705.835938 2235.289062 9767.09375 2300.726562 9856.878906 2300.726562 "/>
</g>
<path style=" stroke:none;fill-rule:nonzero;fill:rgb(11.764706%,15.686275%,25.882354%);fill-opacity:1;" d="M 10167.835938 1927.242188 C 10167.835938 1920.972656 10170.613281 1918.539062 10176.539062 1918.539062 L 10227.34375 1918.539062 C 10233.257812 1918.539062 10236.046875 1920.972656 10236.046875 1927.242188 L 10236.046875 1977.019531 C 10270.160156 1935.945312 10318.1875 1909.835938 10381.1875 1909.835938 C 10472.71875 1909.835938 10532.917969 1966.582031 10532.917969 2068.9375 L 10532.917969 2348.496094 C 10532.917969 2354.421875 10530.496094 2357.199219 10524.214844 2357.199219 L 10473.753906 2357.199219 C 10467.496094 2357.199219 10465.050781 2354.421875 10465.050781 2348.496094 L 10465.050781 2079.386719 C 10465.050781 2008.710938 10428.160156 1974.585938 10365.515625 1974.585938 C 10292.078125 1974.585938 10236.046875 2027.851562 10236.046875 2133.699219 L 10236.046875 2348.507812 C 10236.046875 2354.421875 10233.257812 2357.210938 10227.335938 2357.210938 L 10176.527344 2357.210938 C 10170.613281 2357.210938 10167.824219 2354.421875 10167.824219 2348.507812 Z M 10167.835938 1927.242188 "/>
<path style=" stroke:none;fill-rule:nonzero;fill:rgb(11.764706%,15.686275%,25.882354%);fill-opacity:1;" d="M 5091.996094 2179.457031 L 4842.097656 2179.457031 L 4781.886719 2348.3125 C 4780.152344 2354.226562 4778.410156 2357.015625 4771.449219 2357.015625 L 4712.628906 2357.015625 C 4706.71875 2357.015625 4703.238281 2354.226562 4703.238281 2348.3125 C 4703.238281 2346.578125 4703.238281 2345.53125 4703.949219 2343.085938 L 4920.769531 1754.027344 C 4922.515625 1748.101562 4923.203125 1745.3125 4929.484375 1745.3125 L 5004.65625 1745.3125 C 5010.566406 1745.3125 5011.613281 1748.089844 5013.347656 1754.027344 L 5229.832031 2343.085938 C 5230.867188 2345.53125 5230.867188 2346.578125 5230.867188 2348.3125 C 5230.867188 2354.226562 5227.386719 2357.015625 5221.128906 2357.015625 L 5162.652344 2357.015625 C 5155.695312 2357.015625 5153.960938 2354.226562 5152.214844 2348.3125 Z M 4867.519531 2109.839844 L 5066.585938 2109.839844 L 4967.050781 1833.761719 Z M 4867.519531 2109.839844 "/>
<path style=" stroke:none;fill-rule:nonzero;fill:rgb(9.803922%,18.82353%,24.705882%);fill-opacity:1;" d="M 5677.25 429.261719 L 5677.25 1207.003906 C 5677.25 1218.5 5673.425781 1227.902344 5665.410156 1235.5625 C 5657.765625 1243.566406 5648.015625 1247.402344 5636.179688 1247.402344 L 5418.660156 1247.402344 C 5406.820312 1247.402344 5397.074219 1243.589844 5389.070312 1235.5625 C 5381.414062 1227.902344 5377.589844 1218.5 5377.589844 1207.003906 L 5377.589844 429.261719 C 5377.589844 417.769531 5381.414062 408.363281 5389.070312 400.703125 C 5397.085938 392.703125 5406.820312 388.867188 5418.660156 388.867188 L 5636.179688 388.867188 C 5648.015625 388.867188 5657.753906 392.679688 5665.410156 400.703125 C 5673.414062 408.363281 5677.25 417.769531 5677.25 429.261719 "/>
</g>
</svg>
